# xmcd
#
# Track frame offsets: 
#        150
#        10143
#        25507
#        37073
#        60373
#        73259
#        86627
#        95700
#        108568
#        121387
#        137727
#
# Disc length: 2169 seconds
#
# Revision: 0
# Processed by: cddbd v1.5.2PL0 Copyright (c) Steve Scherf et al.
# Submitted via: ExactAudioCopy v1.3
#
DISCID=9308770b
DTITLE=Three Kings - Three Kings
DYEAR=1900
DGENRE=Blues
TTITLE0=01 Wail baby
TTITLE1=02 Tortured
TTITLE2=03 Three Kings Boogie
TTITLE3=04 You Got Me Nervous
TTITLE4=05 Royal Flush
TTITLE5=06 Swamp Time
TTITLE6=07 Drink It Up
TTITLE7=08 That's What They want
TTITLE8=09 Crazy Crazy Baby
TTITLE9=10 Turn Your damper Down
TTITLE10=11 Train Done Gone
EXTD=
EXTT0=
EXTT1=
EXTT2=
EXTT3=
EXTT4=
EXTT5=
EXTT6=
EXTT7=
EXTT8=
EXTT9=
EXTT10=
PLAYORDER=
